<svg width="50" height="50" viewBox="0 0 50 50" fill="none" xmlns="http://www.w3.org/2000/svg">
<path d="M39 25C39 28.713 37.525 32.274 34.8995 34.8995C32.274 37.525 28.713 39 25 39C21.287 39 17.726 37.525 15.1005 34.8995C12.475 32.274 11 28.713 11 25C11 21.287 12.475 17.726 15.1005 15.1005C17.726 12.475 21.287 11 25 11C28.713 11 32.274 12.475 34.8995 15.1005C37.525 17.726 39 21.287 39 25V25ZM25.875 18.875C25.875 18.6429 25.7828 18.4204 25.6187 18.2563C25.4546 18.0922 25.2321 18 25 18C24.7679 18 24.5454 18.0922 24.3813 18.2563C24.2172 18.4204 24.125 18.6429 24.125 18.875V29.0128L20.3695 25.2555C20.2052 25.0912 19.9824 24.9989 19.75 24.9989C19.5176 24.9989 19.2948 25.0912 19.1305 25.2555C18.9662 25.4198 18.8739 25.6426 18.8739 25.875C18.8739 26.1074 18.9662 26.3302 19.1305 26.4945L24.3805 31.7445C24.4618 31.826 24.5583 31.8906 24.6646 31.9347C24.7709 31.9789 24.8849 32.0016 25 32.0016C25.1151 32.0016 25.2291 31.9789 25.3354 31.9347C25.4417 31.8906 25.5382 31.826 25.6195 31.7445L30.8695 26.4945C31.0338 26.3302 31.1261 26.1074 31.1261 25.875C31.1261 25.6426 31.0338 25.4198 30.8695 25.2555C30.7052 25.0912 30.4824 24.9989 30.25 24.9989C30.0176 24.9989 29.7948 25.0912 29.6305 25.2555L25.875 29.0128V18.875Z" fill="black"/>
</svg>
