<svg width="50" height="50" viewBox="0 0 50 50" fill="none" xmlns="http://www.w3.org/2000/svg">
<path fill-rule="evenodd" clip-rule="evenodd" d="M25 3.12501C19.8067 3.12571 14.7831 4.97404 10.8277 8.33937C6.87231 11.7047 4.24326 16.3675 3.41082 21.4937C2.57839 26.6198 3.59687 31.8749 6.28408 36.319C8.97129 40.763 13.1519 44.106 18.0782 45.75C19.1719 45.9531 19.6407 45.2813 19.6407 44.7031V40.9844C13.5625 42.2969 12.2813 38.0469 12.2813 38.0469C11.8539 36.7076 10.9543 35.5692 9.75003 34.8438C7.76566 33.5 9.90628 33.5156 9.90628 33.5156C10.5994 33.6136 11.261 33.8686 11.8405 34.2612C12.42 34.6539 12.9021 35.1738 13.25 35.7813C13.8553 36.8668 14.8668 37.6675 16.0623 38.0074C17.2577 38.3473 18.5392 38.1985 19.625 37.5938C19.7133 36.4851 20.202 35.4465 21 34.6719C16.1563 34.1094 11.0469 32.2344 11.0469 23.8594C11.0115 21.6842 11.8176 19.5794 13.2969 17.9844C12.6273 16.1003 12.7056 14.0312 13.5157 12.2031C13.5157 12.2031 15.3438 11.6094 19.5313 14.4375C23.1117 13.4609 26.8884 13.4609 30.4688 14.4375C34.6407 11.6094 36.4688 12.2031 36.4688 12.2031C37.2788 14.0312 37.3571 16.1003 36.6875 17.9844C38.1669 19.5794 38.973 21.6842 38.9375 23.8594C38.9375 32.2656 33.8282 34.1094 28.9532 34.6563C29.4754 35.1856 29.8781 35.8207 30.1341 36.5188C30.3902 37.2168 30.4936 37.9617 30.4375 38.7031V44.7031C30.4375 45.4219 30.8282 45.9688 32 45.75C36.9327 44.1039 41.1177 40.7545 43.8045 36.3023C46.4913 31.8501 47.5042 26.5863 46.6615 21.455C45.8188 16.3236 43.1757 11.6603 39.2061 8.30121C35.2365 4.94213 30.2001 3.10704 25 3.12501V3.12501Z" fill="black"/>
</svg>
